<svg xmlns="http://www.w3.org/2000/svg" viewBox="0 0 512 512">
  <rect width="512" height="512" rx="96" fill="#1b120b"/>
  <circle cx="256" cy="256" r="180" fill="#6a3c23"/>
  <path d="M120 306c70-74 164-98 272-74" fill="none" stroke="#2c170c" stroke-width="48" stroke-linecap="round"/>
  <path d="M170 355c75-55 150-64 226-28" fill="none" stroke="#2c170c" stroke-width="38" stroke-linecap="round"/>
  <ellipse cx="224" cy="244" rx="42" ry="35" fill="#2c140b"/>
  <ellipse cx="276" cy="244" rx="44" ry="36" fill="#2c140b"/>
  <ellipse cx="334" cy="244" rx="52" ry="40" fill="#2c140b"/>
  <circle cx="188" cy="236" r="9" fill="#ffe6b7"/>
  <circle cx="188" cy="258" r="9" fill="#ffe6b7"/>
  <path d="M230 210l-40-48M230 278l-42 50M278 210l-16-58M278 278l-18 62M328 210l40-50M328 278l44 48" stroke="#2c140b" stroke-width="16" stroke-linecap="round"/>
  <circle cx="376" cy="360" r="34" fill="#f7dfaa"/>
  <circle cx="130" cy="126" r="22" fill="#ffd27c"/>
</svg>
